<?xml version="1.0" encoding="UTF-8" standalone="no"?>
<svg width="30px" height="33px" viewBox="0 0 30 33" version="1.1" xmlns="http://www.w3.org/2000/svg" xmlns:xlink="http://www.w3.org/1999/xlink">
  <g>
    <path d="M12.1440348,0.336410256 C12.2731881,0.361980875 12.4017223,0.405692392 12.5316185,0.410335967 C14.4964079,0.481042132 16.3296912,1.02143041 18.0219956,2.0064874 C20.1745092,3.25938579 21.8183966,4.9980021 22.8581239,7.27657328 C23.4364657,8.54402154 23.754953,9.87747047 23.8266498,11.2723384 C24.0112164,14.8655366 22.8532327,18.0342501 20.6948372,20.8403933 C17.8530314,24.5352548 14.9437389,28.1781701 12.062927,31.8429413 C12.0445385,31.866283 12.0182249,31.8833094 11.9607684,31.9340172 C11.7342239,31.6528023 11.5087319,31.3780265 11.2886883,31.0989787 C8.58798525,27.6735064 5.8692651,24.2620268 3.19512326,20.8159371 C1.60900194,18.7719593 0.584072121,16.4633597 0.204908763,13.8855566 C-0.240998244,10.8537975 0.293879655,8.02592242 2.07001605,5.50774278 C4.01022542,2.75707483 6.68040474,1.11139193 10.0048947,0.551005325 C10.4698713,0.472621783 10.945683,0.459310202 11.4158604,0.409902566 C11.5359742,0.397210129 11.6537352,0.361547475 11.7725488,0.336410256 L12.1440348,0.336410256 L12.1440348,0.336410256 Z M11.99284,8.23989835 C9.76541007,8.24590404 7.99175025,10.0204307 7.98599222,12.2486655 C7.98035802,14.4266878 9.79550044,16.2108731 12.0127145,16.2066629 C14.1938325,16.2025146 15.9477417,14.3978976 15.9415503,12.1644001 C15.9354827,10.0133105 14.1452917,8.2340784 11.99284,8.23989835 L11.99284,8.23989835 Z" fill="#40d47e"></path>
  </g>
</svg>
