<?xml version="1.0" encoding="UTF-8" standalone="no"?>
<svg width="30px" height="33px" viewBox="0 0 30 33" version="1.1" xmlns="http://www.w3.org/2000/svg" xmlns:xlink="http://www.w3.org/1999/xlink">
  <g>
    <path d="M11.7934359,0.336410256 L12.1647179,0.336410256 C12.2832821,0.361435897 12.4010256,0.399179487 12.5208205,0.409435897 C12.8998974,0.443487179 13.2838974,0.441846154 13.6588718,0.498871795 C16.0740513,0.866051282 18.2139487,1.83548718 20.0346667,3.47446154 C22.3419487,5.55158974 23.6153846,8.14933333 23.8291282,11.2406154 C23.9522051,13.0272821 23.6482051,14.7651282 23.0820513,16.4672821 C22.9146667,16.9702564 22.6738462,17.1561026 22.1552821,17.2229744 C19.9255385,17.5105641 18.0937436,18.5645128 16.7144615,20.3277949 C15.0430769,22.4652308 14.5035897,24.8882051 15.1054359,27.5462564 C15.1575385,27.7764103 15.1251282,27.9446154 14.9704615,28.1345641 C14.4043077,28.830359 13.8615385,29.5454359 13.3089231,30.2523077 C12.872,30.8106667 12.4338462,31.3673846 11.9481026,31.9868718 C11.9037949,31.9027692 11.8865641,31.8518974 11.8553846,31.8121026 C11.1538462,30.9206154 10.4510769,30.030359 9.74871795,29.1392821 C7.78851282,26.6531282 5.8385641,24.1587692 3.86482051,21.6828718 C2.57620513,20.0664615 1.49148718,18.3417436 0.824,16.3712821 C0.155692308,14.3995897 -0.104820513,12.3794872 0.191794872,10.3163077 C0.570871795,7.68287179 1.75446154,5.45025641 3.70933333,3.63979487 C5.86317949,1.64471795 8.40635897,0.561641026 11.3429744,0.412307692 C11.4939487,0.404512821 11.6428718,0.362666667 11.7934359,0.336410256 L11.7934359,0.336410256 L11.7934359,0.336410256 Z M11.9550769,16.2059487 C14.1429744,16.2125128 15.9345641,14.4369231 15.9513846,12.2461538 C15.9682051,10.046359 14.1798974,8.24451282 11.9755897,8.24 C9.79015385,8.23548718 7.99979487,10.0237949 7.99897436,12.2112821 C7.9985641,14.4082051 9.77292308,16.1997949 11.9550769,16.2059487 L11.9550769,16.2059487 L11.9550769,16.2059487 Z" fill="#40d47e"></path>
    <g transform="translate(16.000000, 19.000000)">
      <path d="M6.9991795,13.0352821 C6.6369231,12.9692308 6.2722051,12.9163077 5.913641,12.8350769 C3.3987692,12.2648205 1.4586667,10.2110769 1.0250256,7.6670769 C0.4289231,4.1737436 2.8502564,0.792 6.3366154,0.2471795 C9.7035897,-0.278359 12.9212308,1.9686154 13.5932308,5.3150769 C14.3193846,8.9269744 11.8598974,12.4198974 8.2205128,12.9466667 C8.0395897,12.9729231 7.8603077,13.0057436 7.6802051,13.0352821 L6.9991795,13.0352821 L6.9991795,13.0352821 Z" fill="#e60000"></path>
      <path d="M4.9310769,6.8592821 C4.3526154,7.433641 3.7757949,8.0088205 3.2043077,8.5897436 C2.9544615,8.8436923 2.9282051,9.1247179 3.1509744,9.3569231 C3.6149744,9.8406154 4.0875897,10.3161026 4.5700513,10.7817436 C4.8084103,11.0118974 5.0598974,11 5.3113846,10.7632821 C5.6038974,10.4871795 5.8824615,10.1971282 6.1675897,9.9128205 C6.5454359,9.5349744 6.9228718,9.1563077 7.318359,8.7608205 C7.4196923,8.8535385 7.5029744,8.9261538 7.5817436,9.0036923 C8.1478974,9.5608205 8.710359,10.1212308 9.2793846,10.6754872 C9.6465641,11.033641 9.8672821,11.0328205 10.2237949,10.6795897 C10.6196923,10.2877949 11.0135385,9.8935385 11.4041026,9.4968205 C11.7565128,9.1390769 11.7585641,8.8724103 11.4024615,8.5154872 C10.841641,7.9530256 10.2742564,7.3975385 9.7105641,6.8379487 C9.6342564,6.7620513 9.5641026,6.68 9.4709744,6.5794872 C10.1417436,5.9156923 10.7899487,5.2810256 11.430359,4.6381538 C11.7466667,4.3210256 11.7470769,4.0387692 11.4406154,3.7245128 C11.0373333,3.3109744 10.6295385,2.9015385 10.2180513,2.4966154 C9.8557949,2.1409231 9.6363077,2.1442051 9.2724103,2.505641 C8.7013333,3.0726154 8.1351795,3.6441026 7.5653333,4.2123077 C7.4882051,4.2886154 7.4024615,4.3563077 7.2769231,4.4670769 C7.1944615,4.3579487 7.1398974,4.2676923 7.0681026,4.1946667 C6.5208205,3.6334359 5.9723077,3.0734359 5.4192821,2.518359 C5.0328205,2.1310769 4.8219487,2.1364103 4.4289231,2.5282051 C4.0272821,2.9286154 3.6248205,3.3282051 3.2276923,3.7335385 C2.9302564,4.0358974 2.9269744,4.2873846 3.2108718,4.5934359 C3.3716923,4.7673846 3.5415385,4.9331282 3.7076923,5.1025641 C4.1897436,5.5952821 4.6717949,6.0875897 5.2194872,6.6467692 C5.0968205,6.7357949 5.0036923,6.7870769 4.9310769,6.8592821 Z" fill="#ffffff"></path>
    </g>
  </g>
</svg>
